# xmcd CD database file
#
# Track frame offsets:
#	150
#	24845
#	47570
#	68935
#	92580
#	118730
#	148915
#	176230
#	198605
#	223800
#	249340
#	272595
#	297310
#	317650
#
# Disc length: 4612 seconds
#
# Revision: 0
# Processed by: cddbd v1.4PL0 Copyright (c) Steve Scherf et al.
# Submitted via: CDex 1.50Beta7
#
DISCID=d812020e
DTITLE=Lars Gullin - Bariton Sax - Lars Gullin Swings
DYEAR=1900
DGENRE=Jazz
TTITLE0=Summertime
TTITLE1=Feja
TTITLE2=A Foggy Day
TTITLE3=Perotz
TTITLE4=All of me
TTITLE5=mean to me
TTITLE6=So what
TTITLE7=Jeepers Creepers
TTITLE8=Like Someone in love
TTITLE9=Half Nylson
TTITLE10=Lover come back to me
TTITLE11=After eight pM
TTITLE12=Yesterday
TTITLE13=Always
EXTD=
EXTT0=
EXTT1=
EXTT2=
EXTT3=
EXTT4=
EXTT5=
EXTT6=
EXTT7=
EXTT8=
EXTT9=
EXTT10=
EXTT11=
EXTT12=
EXTT13=
PLAYORDER=
